<mxfile host="app.diagrams.net" agent="Mozilla/5.0 (Windows NT 10.0; Win64; x64) AppleWebKit/537.36 (KHTML, like Gecko) Chrome/130.0.0.0 Safari/537.36" version="24.8.3">
  <diagram name="Page-1" id="x6E66cp7Hla_8epO-vnr">
    <mxGraphModel dx="2058" dy="921" grid="1" gridSize="10" guides="1" tooltips="1" connect="1" arrows="1" fold="1" page="1" pageScale="1" pageWidth="850" pageHeight="1100" math="0" shadow="0">
      <root>
        <mxCell id="0" />
        <mxCell id="1" parent="0" />
        <mxCell id="qRwDpleUM2lPZmS7dijk-1" value="Admin" style="shape=umlLifeline;perimeter=lifelinePerimeter;whiteSpace=wrap;container=1;dropTarget=0;collapsible=0;recursiveResize=0;outlineConnect=0;portConstraint=eastwest;newEdgeStyle={&quot;edgeStyle&quot;:&quot;elbowEdgeStyle&quot;,&quot;elbow&quot;:&quot;vertical&quot;,&quot;curved&quot;:0,&quot;rounded&quot;:0};participant=umlActor;verticalAlign=bottom;labelPosition=center;verticalLabelPosition=top;align=center;size=65;" vertex="1" parent="1">
          <mxGeometry x="20" y="20" width="35" height="560" as="geometry" />
        </mxCell>
        <mxCell id="qRwDpleUM2lPZmS7dijk-2" value="AuthController" style="shape=umlLifeline;perimeter=lifelinePerimeter;whiteSpace=wrap;container=1;dropTarget=0;collapsible=0;recursiveResize=0;outlineConnect=0;portConstraint=eastwest;newEdgeStyle={&quot;edgeStyle&quot;:&quot;elbowEdgeStyle&quot;,&quot;elbow&quot;:&quot;vertical&quot;,&quot;curved&quot;:0,&quot;rounded&quot;:0};size=65;" vertex="1" parent="1">
          <mxGeometry x="220" y="20" width="150" height="560" as="geometry" />
        </mxCell>
        <mxCell id="qRwDpleUM2lPZmS7dijk-3" value="Database" style="shape=umlLifeline;perimeter=lifelinePerimeter;whiteSpace=wrap;container=1;dropTarget=0;collapsible=0;recursiveResize=0;outlineConnect=0;portConstraint=eastwest;newEdgeStyle={&quot;edgeStyle&quot;:&quot;elbowEdgeStyle&quot;,&quot;elbow&quot;:&quot;vertical&quot;,&quot;curved&quot;:0,&quot;rounded&quot;:0};size=65;" vertex="1" parent="1">
          <mxGeometry x="483" y="20" width="150" height="560" as="geometry" />
        </mxCell>
        <mxCell id="qRwDpleUM2lPZmS7dijk-4" value="DashboardController" style="shape=umlLifeline;perimeter=lifelinePerimeter;whiteSpace=wrap;container=1;dropTarget=0;collapsible=0;recursiveResize=0;outlineConnect=0;portConstraint=eastwest;newEdgeStyle={&quot;edgeStyle&quot;:&quot;elbowEdgeStyle&quot;,&quot;elbow&quot;:&quot;vertical&quot;,&quot;curved&quot;:0,&quot;rounded&quot;:0};size=65;" vertex="1" parent="1">
          <mxGeometry x="683" y="20" width="168" height="560" as="geometry" />
        </mxCell>
        <mxCell id="qRwDpleUM2lPZmS7dijk-5" value="ReportDashboard" style="shape=umlLifeline;perimeter=lifelinePerimeter;whiteSpace=wrap;container=1;dropTarget=0;collapsible=0;recursiveResize=0;outlineConnect=0;portConstraint=eastwest;newEdgeStyle={&quot;edgeStyle&quot;:&quot;elbowEdgeStyle&quot;,&quot;elbow&quot;:&quot;vertical&quot;,&quot;curved&quot;:0,&quot;rounded&quot;:0};size=65;" vertex="1" parent="1">
          <mxGeometry x="928" y="20" width="150" height="560" as="geometry" />
        </mxCell>
        <mxCell id="qRwDpleUM2lPZmS7dijk-6" value="enter login details" style="verticalAlign=bottom;edgeStyle=elbowEdgeStyle;elbow=vertical;curved=0;rounded=0;endArrow=block;" edge="1" parent="1" source="qRwDpleUM2lPZmS7dijk-1" target="qRwDpleUM2lPZmS7dijk-2">
          <mxGeometry relative="1" as="geometry">
            <Array as="points">
              <mxPoint x="204" y="125" />
            </Array>
          </mxGeometry>
        </mxCell>
        <mxCell id="qRwDpleUM2lPZmS7dijk-7" value="verify credentials" style="verticalAlign=bottom;edgeStyle=elbowEdgeStyle;elbow=vertical;curved=0;rounded=0;endArrow=block;" edge="1" parent="1" source="qRwDpleUM2lPZmS7dijk-2" target="qRwDpleUM2lPZmS7dijk-3">
          <mxGeometry relative="1" as="geometry">
            <Array as="points">
              <mxPoint x="435" y="175" />
            </Array>
          </mxGeometry>
        </mxCell>
        <mxCell id="qRwDpleUM2lPZmS7dijk-8" value="return authentication result" style="verticalAlign=bottom;edgeStyle=elbowEdgeStyle;elbow=vertical;curved=0;rounded=0;dashed=1;dashPattern=2 3;endArrow=block;" edge="1" parent="1" source="qRwDpleUM2lPZmS7dijk-3" target="qRwDpleUM2lPZmS7dijk-2">
          <mxGeometry relative="1" as="geometry">
            <Array as="points">
              <mxPoint x="438" y="225" />
            </Array>
          </mxGeometry>
        </mxCell>
        <mxCell id="qRwDpleUM2lPZmS7dijk-9" value="login successful" style="verticalAlign=bottom;edgeStyle=elbowEdgeStyle;elbow=vertical;curved=0;rounded=0;dashed=1;dashPattern=2 3;endArrow=block;" edge="1" parent="1" source="qRwDpleUM2lPZmS7dijk-2" target="qRwDpleUM2lPZmS7dijk-1">
          <mxGeometry relative="1" as="geometry">
            <Array as="points">
              <mxPoint x="207" y="275" />
            </Array>
          </mxGeometry>
        </mxCell>
        <mxCell id="qRwDpleUM2lPZmS7dijk-10" value="request dashboard access" style="verticalAlign=bottom;edgeStyle=elbowEdgeStyle;elbow=vertical;curved=0;rounded=0;endArrow=block;" edge="1" parent="1" source="qRwDpleUM2lPZmS7dijk-1" target="qRwDpleUM2lPZmS7dijk-4">
          <mxGeometry relative="1" as="geometry">
            <Array as="points">
              <mxPoint x="440" y="325" />
            </Array>
          </mxGeometry>
        </mxCell>
        <mxCell id="qRwDpleUM2lPZmS7dijk-11" value="load dashboard metrics" style="verticalAlign=bottom;edgeStyle=elbowEdgeStyle;elbow=vertical;curved=0;rounded=0;endArrow=block;" edge="1" parent="1" source="qRwDpleUM2lPZmS7dijk-4" target="qRwDpleUM2lPZmS7dijk-5">
          <mxGeometry relative="1" as="geometry">
            <Array as="points">
              <mxPoint x="894" y="375" />
            </Array>
          </mxGeometry>
        </mxCell>
        <mxCell id="qRwDpleUM2lPZmS7dijk-12" value="send dashboard data" style="verticalAlign=bottom;edgeStyle=elbowEdgeStyle;elbow=vertical;curved=0;rounded=0;dashed=1;dashPattern=2 3;endArrow=block;" edge="1" parent="1" source="qRwDpleUM2lPZmS7dijk-5" target="qRwDpleUM2lPZmS7dijk-4">
          <mxGeometry relative="1" as="geometry">
            <Array as="points">
              <mxPoint x="897" y="425" />
            </Array>
          </mxGeometry>
        </mxCell>
        <mxCell id="qRwDpleUM2lPZmS7dijk-13" value="display dashboard" style="verticalAlign=bottom;edgeStyle=elbowEdgeStyle;elbow=vertical;curved=0;rounded=0;dashed=1;dashPattern=2 3;endArrow=block;" edge="1" parent="1" source="qRwDpleUM2lPZmS7dijk-4" target="qRwDpleUM2lPZmS7dijk-1">
          <mxGeometry relative="1" as="geometry">
            <Array as="points">
              <mxPoint x="443" y="475" />
            </Array>
          </mxGeometry>
        </mxCell>
      </root>
    </mxGraphModel>
  </diagram>
</mxfile>
